<?xml version="1.0" standalone="no"?>
<!DOCTYPE svg PUBLIC "-//W3C//DTD SVG 20010904//EN"
 "http://www.w3.org/TR/2001/REC-SVG-20010904/DTD/svg10.dtd">
<svg version="1.0" xmlns="http://www.w3.org/2000/svg"
 width="512.000000pt" height="512.000000pt" viewBox="0 0 512.000000 512.000000"
 preserveAspectRatio="xMidYMid meet">

<g transform="translate(0.000000,512.000000) scale(0.100000,-0.100000)"
fill="#000000" stroke="none">
<path d="M2300 4973 c-14 -2 -74 -10 -135 -19 -189 -26 -389 -84 -592 -170
-279 -118 -522 -283 -749 -509 -367 -365 -590 -793 -686 -1316 -29 -162 -37
-543 -14 -719 36 -275 109 -518 231 -765 131 -267 282 -474 503 -686 340 -328
728 -528 1227 -636 108 -23 148 -26 400 -30 230 -4 302 -2 395 12 450 65 877
254 1220 540 110 91 304 296 387 406 247 330 409 720 468 1129 21 150 18 556
-5 707 -39 248 -111 476 -224 708 -285 581 -795 1028 -1411 1233 -262 88 -485
122 -780 121 -115 -1 -221 -3 -235 -6z m491 -53 c342 -35 724 -166 1013 -349
214 -135 435 -329 585 -514 271 -335 461 -773 516 -1190 28 -217 19 -567 -21
-767 -165 -830 -729 -1494 -1520 -1789 -148 -56 -358 -107 -507 -126 -159 -20
-481 -20 -631 0 -499 66 -964 289 -1340 645 -287 272 -520 659 -634 1050 -69
237 -90 394 -90 670 0 266 24 445 90 670 268 912 1054 1578 1998 1695 131 16
404 18 541 5z"/>
<path d="M2360 4770 c-80 -3 -135 -7 -124 -8 40 -4 45 -24 51 -206 6 -185 3
-206 -38 -206 -11 0 -19 -4 -19 -10 0 -6 37 -10 90 -10 53 0 90 4 90 10 0 6
-8 10 -18 10 -34 0 -42 21 -42 112 l0 88 53 0 c55 0 77 -12 77 -42 0 -10 5
-18 10 -18 6 0 10 32 10 75 0 43 -4 75 -10 75 -5 0 -10 -8 -10 -18 0 -30 -22
-42 -77 -42 l-53 0 0 85 0 85 66 0 c74 0 97 -9 119 -48 15 -27 15 -27 12 23
-2 58 17 54 -187 45z"/>
<path d="M2830 4756 c0 -4 11 -11 25 -16 14 -6 25 -17 25 -28 0 -26 -59 -353
-66 -363 -3 -5 -18 -9 -35 -9 -16 0 -29 -4 -29 -10 0 -5 10 -10 23 -10 12 0
82 -11 156 -25 74 -14 139 -25 146 -25 11 0 65 88 65 105 0 5 -16 -8 -35 -28
-29 -30 -43 -37 -75 -37 -56 0 -138 19 -143 34 -3 7 8 84 24 171 16 88 29 163
29 167 0 18 35 39 56 34 13 -4 24 -2 24 2 0 5 -33 14 -72 21 -40 7 -83 14 -95
18 -13 3 -23 2 -23 -1z"/>
<path d="M1858 4690 c-138 -41 -196 -197 -123 -330 110 -201 400 -132 400 95
0 159 -139 277 -277 235z m127 -62 c74 -75 109 -222 71 -296 -30 -59 -115 -82
-173 -47 -83 49 -143 244 -99 323 20 37 66 62 115 62 38 0 49 -5 86 -42z"/>
<path d="M3381 4416 c-180 -150 -194 -160 -222 -153 -37 10 -18 -8 41 -39 63
-33 71 -33 43 -2 -16 18 -15 21 29 64 l45 46 77 -42 c74 -41 76 -43 76 -80 0
-21 -4 -50 -10 -65 -8 -21 -14 -24 -35 -19 -46 11 -26 -5 55 -46 44 -22 80
-36 80 -30 0 5 -4 10 -9 10 -24 0 -28 61 -14 235 7 99 12 198 11 219 l-3 39
-164 -137z m102 -43 c-3 -49 -7 -89 -8 -91 -2 -2 -33 12 -69 30 l-66 34 67 56
c38 31 71 57 74 57 4 1 4 -38 2 -86z"/>
<path d="M1315 4428 c-71 -56 -74 -60 -43 -53 36 9 45 -10 53 -123 l8 -93 -99
36 c-55 19 -100 35 -101 35 -8 0 -1 40 7 45 6 3 10 11 10 16 0 5 -34 -16 -75
-47 -41 -31 -75 -59 -75 -61 0 -3 12 -2 26 1 17 5 68 -7 156 -36 l131 -43 43
-57 c47 -60 55 -91 27 -107 -10 -5 -15 -12 -12 -15 3 -3 38 19 78 50 40 31 70
58 68 61 -3 2 -14 -1 -25 -8 -25 -16 -44 -1 -97 71 -32 43 -34 53 -45 173 -10
111 -10 131 4 158 9 18 15 33 14 35 -2 1 -25 -16 -53 -38z"/>
<path d="M3800 4252 c-89 -44 -146 -141 -138 -236 15 -185 243 -254 374 -114
51 53 68 96 68 163 -1 87 -40 148 -121 189 -42 21 -138 20 -183 -2z m184 -26
c73 -30 97 -116 55 -198 -29 -57 -117 -143 -163 -158 -50 -16 -99 -6 -134 30
-40 39 -46 71 -27 138 13 44 29 68 79 118 78 78 127 96 190 70z"/>
<path d="M2265 4221 c-375 -69 -660 -216 -920 -476 -145 -145 -233 -267 -319
-440 -285 -575 -228 -1244 152 -1765 107 -146 298 -324 454 -424 302 -192 706
-291 1048 -257 533 54 979 316 1266 743 386 575 386 1313 -1 1893 -244 367
-618 617 -1071 716 -143 31 -466 36 -609 10z m435 -41 c409 -43 775 -225 1051
-526 395 -429 530 -1055 348 -1615 -42 -130 -146 -335 -226 -449 -87 -121
-252 -286 -373 -373 -114 -81 -321 -186 -447 -227 -178 -57 -297 -74 -508 -75
-216 0 -319 15 -500 72 -553 175 -971 628 -1101 1193 -123 538 30 1099 408
1495 281 294 645 469 1058 508 76 8 200 6 290 -3z"/>
<path d="M1780 3730 l0 -160 -165 0 -165 0 0 -918 0 -917 36 -55 c245 -376
917 -548 1531 -391 113 29 260 91 351 148 101 62 218 175 265 254 l37 64 0
907 0 908 -150 0 -150 0 0 160 0 160 -795 0 -795 0 0 -160z m767 -89 l3 -223
-33 6 c-17 3 -40 15 -49 27 -10 11 -24 22 -31 23 -7 1 -33 18 -58 37 -24 20
-60 47 -79 61 l-35 26 -107 -26 c-68 -17 -108 -32 -108 -40 0 -7 -5 -10 -12
-6 -6 4 -8 3 -5 -3 4 -7 43 -2 110 15 l103 25 45 -30 c24 -17 57 -45 74 -63
l30 -31 -25 -19 c-20 -16 -22 -20 -7 -20 9 0 17 4 17 8 0 4 12 9 26 10 22 2
25 0 14 -13 -16 -19 -4 -19 51 0 24 9 39 12 34 6 -6 -5 -63 -28 -127 -52 -65
-23 -118 -46 -118 -51 0 -5 8 -4 18 1 16 8 262 101 269 101 2 0 3 -6 3 -13 0
-8 -15 -18 -32 -24 -18 -6 -83 -29 -145 -50 l-112 -40 22 -20 c13 -10 28 -18
34 -16 7 3 24 -3 40 -11 27 -14 27 -15 5 -16 -13 0 -37 -7 -53 -16 -17 -8 -33
-13 -37 -10 -3 3 -1 6 5 6 6 0 13 7 17 15 5 13 2 13 -19 -1 -28 -18 -33 -9
-10 16 14 15 13 17 -7 15 -28 -2 -36 -34 -13 -51 15 -11 15 -13 -4 -23 -22
-12 -37 1 -25 21 5 8 2 9 -9 5 -18 -7 -24 8 -7 18 6 4 1 14 -12 25 -13 10 -19
22 -15 26 4 5 12 2 17 -6 8 -13 10 -12 10 2 0 9 -9 20 -21 23 -22 7 -29 4 -33
-17 -8 -46 -19 -78 -25 -78 -18 0 -18 15 0 57 25 58 24 61 -6 29 -14 -16 -22
-33 -18 -39 4 -7 -4 -5 -17 4 -14 9 -25 23 -26 30 -2 33 -5 39 -15 39 -5 0 -8
-4 -5 -8 2 -4 1 -14 -3 -21 -6 -9 -13 -6 -29 13 -11 14 -21 26 -23 26 -2 0 -5
-18 -5 -40 -1 -22 1 -38 5 -36 3 2 11 -7 18 -20 6 -13 7 -24 2 -24 -5 0 -9 5
-9 11 0 6 -9 8 -20 4 -16 -5 -20 -2 -20 18 0 14 -7 28 -16 31 -15 6 -14 9 5
30 13 13 18 27 13 30 -12 7 -27 -11 -36 -41 -4 -13 -12 -23 -17 -23 -6 0 -8 8
-4 19 3 12 0 21 -9 24 -10 4 -13 1 -10 -7 3 -7 -1 -16 -9 -19 -11 -4 -14 1
-12 19 1 13 -2 27 -6 30 -5 3 -9 11 -9 17 0 7 7 3 15 -7 25 -32 44 9 23 48
-10 19 -10 20 5 7 12 -9 17 -10 17 -2 0 7 16 0 35 -15 19 -14 35 -25 36 -23 7
38 7 49 -3 55 -8 5 -9 2 -5 -9 7 -19 -17 -24 -28 -7 -3 6 -1 10 6 10 8 0 8 4
-1 15 -8 10 -9 15 -2 15 6 0 0 12 -14 27 -13 14 -27 23 -31 20 -3 -4 2 -16 12
-27 10 -11 13 -20 7 -20 -7 0 -12 6 -12 13 0 8 -3 8 -9 -2 -8 -12 -13 -12 -35
3 -15 9 -24 22 -20 28 4 7 3 8 -4 4 -7 -4 -20 -2 -29 4 -16 11 -16 11 -1 6 10
-3 20 -1 23 4 4 6 16 10 28 10 21 1 21 1 3 12 -15 8 -21 8 -24 0 -6 -19 -19
-14 -27 11 -3 12 -9 17 -11 10 -3 -7 -12 -9 -20 -6 -10 4 -13 0 -8 -13 4 -13
3 -15 -3 -6 -6 7 -17 10 -28 6 -13 -5 -16 -4 -11 4 10 16 -7 15 -23 0 -10 -11
-11 -10 -6 5 4 9 19 18 34 19 14 0 31 2 36 3 6 2 16 3 23 4 9 1 12 39 12 156
l0 154 153 3 c83 2 251 3 372 3 l220 0 2 -224z m223 214 c0 -7 6 -16 13 -18 8
-4 8 -8 2 -14 -11 -9 -15 -27 -19 -93 -4 -50 8 -90 25 -90 18 0 66 -45 61 -58
-2 -8 8 -12 30 -13 18 -1 44 -5 58 -9 24 -8 24 -8 2 -9 l-22 -1 20 -40 c11
-21 20 -46 20 -55 0 -9 4 -14 10 -10 5 3 6 13 3 21 -4 11 0 15 13 12 14 -2 20
4 22 21 4 22 1 23 -30 17 -23 -4 -29 -3 -18 4 8 5 23 10 32 10 16 0 15 3 -4
25 -12 14 -29 25 -38 25 -17 0 -54 65 -45 80 3 5 13 6 22 3 12 -5 14 -3 8 7
-5 9 -4 11 4 6 6 -4 9 -12 6 -17 -4 -5 -1 -10 4 -10 21 -3 26 -5 46 -16 11 -7
15 -13 10 -13 -6 0 -16 5 -22 11 -9 9 -11 5 -9 -17 2 -21 9 -30 26 -32 12 -2
27 1 33 7 8 8 6 11 -7 11 -9 0 -14 5 -11 10 4 6 -11 32 -32 59 -32 40 -42 47
-57 39 -15 -9 -16 -7 -7 10 9 16 4 28 -26 66 -21 27 -42 45 -50 42 -7 -3 -13
0 -13 6 0 6 -2 9 -5 6 -10 -10 7 -37 19 -32 15 6 42 -23 32 -33 -4 -4 -11 -1
-16 7 -23 36 -17 -4 11 -83 27 -76 29 -88 16 -101 -13 -13 -17 -4 -36 69 -18
68 -26 83 -39 79 -16 -5 -16 -5 0 5 15 10 15 15 1 57 -8 25 -14 47 -12 49 6 6
74 7 312 6 l227 -1 0 -135 c0 -84 -4 -135 -10 -135 -16 0 12 -38 32 -43 25 -7
23 -26 -4 -37 -16 -6 -18 -9 -6 -9 9 -1 23 -4 31 -7 11 -4 16 2 19 23 l3 28
117 3 118 3 -1 -115 c-1 -108 -3 -115 -19 -106 -13 7 -27 5 -45 -4 -26 -13
-26 -14 -6 -21 12 -3 21 -10 21 -15 0 -5 7 -7 15 -4 8 4 15 1 15 -5 0 -6 -12
-11 -27 -11 -20 0 -45 17 -92 63 -36 34 -54 49 -41 32 14 -16 36 -40 50 -52
31 -29 21 -39 -19 -19 -26 14 -30 14 -25 1 7 -18 38 -28 64 -20 11 4 20 2 20
-4 0 -7 -59 -11 -180 -11 -113 0 -180 4 -180 10 0 6 -11 10 -25 10 -32 0 -34
30 -2 31 21 1 21 1 -2 8 -14 4 -26 12 -29 19 -6 19 39 14 54 -5 7 -10 14 -15
14 -11 0 4 -10 18 -23 32 -19 20 -28 23 -57 17 -22 -4 -30 -10 -22 -14 21 -14
13 -34 -20 -50 -32 -16 -32 -16 -45 15 -16 38 -16 38 2 38 8 0 21 -12 28 -26
16 -31 29 -20 16 14 -7 18 -16 22 -49 22 -38 0 -41 -2 -34 -22 19 -60 30 -77
44 -68 20 13 50 13 50 0 0 -5 -10 -10 -22 -10 -13 0 -34 -9 -48 -20 -24 -19
-24 -20 -4 -20 18 0 27 -16 56 -97 23 -67 39 -99 51 -101 16 -3 15 1 -4 50
-12 29 -26 71 -31 93 -5 22 -14 43 -21 47 -7 4 2 8 21 8 18 0 31 -4 28 -9 -7
-11 62 -151 74 -151 10 0 -6 46 -22 65 -4 5 -8 16 -8 25 0 8 -7 27 -14 43 -15
27 -15 27 20 27 19 0 33 -4 29 -9 -3 -5 -1 -12 5 -16 6 -4 8 -10 5 -15 -7 -11
19 -20 34 -11 9 6 8 11 -4 21 -27 22 -18 40 23 41 64 2 87 -2 96 -19 5 -9 19
-25 31 -36 12 -12 40 -49 63 -83 38 -56 62 -83 62 -69 0 7 -69 106 -87 124
-19 20 -16 25 11 18 12 -3 25 -3 28 0 12 11 -43 53 -74 57 -18 2 17 5 78 5 99
2 113 0 129 -18 10 -11 23 -20 28 -20 6 0 2 9 -8 20 -18 19 -17 20 2 20 20 0
21 -6 22 -110 l1 -110 -214 0 c-206 0 -215 1 -221 20 -3 11 -11 20 -16 20 -6
0 -6 -8 1 -20 10 -19 8 -20 -63 -20 l-74 0 -59 58 c-65 62 -94 86 -115 95 -8
3 -1 6 14 6 31 1 48 28 26 42 -8 5 -9 9 -3 9 7 0 14 7 17 14 4 11 1 13 -10 9
-14 -5 -15 -1 -10 26 5 23 3 30 -5 25 -8 -5 -9 0 -5 15 4 15 -1 29 -14 42 -10
10 -19 24 -19 29 0 6 -5 10 -11 10 -6 0 -9 -9 -6 -20 3 -11 1 -18 -4 -14 -12
7 -12 41 0 49 5 3 17 -5 25 -17 13 -18 16 -19 16 -6 0 9 -4 20 -10 23 -16 10
-12 25 7 25 14 0 14 3 5 12 -10 10 -14 10 -21 0 -4 -8 -16 -12 -27 -10 -11 2
-23 -6 -31 -22 -10 -19 -13 -21 -13 -7 0 10 -4 16 -9 13 -5 -3 -11 4 -14 15
-5 20 -5 20 14 3 23 -21 24 -13 4 26 -11 22 -12 30 -2 33 7 3 5 6 -5 6 -18 1
-23 12 -11 24 3 4 12 2 20 -5 7 -6 16 -8 19 -5 3 3 -7 12 -22 20 -17 9 -23 17
-15 21 6 4 11 12 11 18 0 6 -10 3 -22 -8 -12 -10 -18 -13 -13 -5 5 9 3 12 -6
9 -9 -3 -13 -19 -12 -46 1 -23 -3 -40 -8 -36 -5 3 -9 0 -9 -7 0 -9 -3 -9 -14
0 -19 16 -29 62 -17 74 6 6 11 16 11 22 0 5 -6 3 -13 -5 -19 -24 -68 -52 -81
-47 -9 4 -13 -5 -14 -24 0 -16 4 -29 9 -29 5 0 9 5 9 10 0 6 8 10 18 10 15 0
15 -2 2 -10 -13 -9 -12 -12 4 -25 10 -8 23 -12 27 -9 15 9 38 -40 32 -68 -6
-33 -18 -36 -32 -9 -8 14 -7 22 4 31 8 7 15 17 15 22 0 12 -45 5 -64 -11 -13
-11 -16 -11 -16 0 0 11 -2 11 -10 -1 -7 -10 -10 14 -10 77 0 91 9 118 33 94 8
-8 6 -11 -6 -11 -22 0 -22 -14 1 -31 15 -12 16 -12 5 1 -10 13 -8 18 8 28 10
7 19 19 19 26 0 8 8 16 18 19 9 2 0 4 -20 3 -21 0 -38 -4 -38 -8 0 -4 -4 -8
-10 -8 -6 0 -10 50 -10 129 l0 130 95 0 c73 -1 95 -4 95 -14z m133 -103 c18
-20 21 -19 -35 -13 -5 1 -8 5 -8 11 0 5 7 6 17 3 11 -4 14 -3 9 5 -11 18 -1
14 17 -6z m-607 -199 c-7 -7 -26 7 -26 19 0 6 6 6 15 -2 9 -7 13 -15 11 -17z
m-736 -17 c0 -2 3 -11 6 -20 3 -9 1 -16 -6 -16 -6 0 -9 4 -5 9 3 6 -3 14 -12
20 -17 10 -17 10 0 11 9 0 17 -2 17 -4z m94 -12 c9 -23 -2 -31 -17 -12 -6 9
-19 18 -27 21 -9 3 -4 6 11 6 16 1 29 -6 33 -15z m36 12 c0 -11 -19 -15 -25
-6 -3 5 1 10 9 10 9 0 16 -2 16 -4z m650 -11 c11 -13 10 -14 -4 -9 -9 3 -16
10 -16 15 0 13 6 11 20 -6z m333 -24 c12 -25 12 -29 1 -24 -8 3 -14 9 -14 13
0 5 -3 15 -6 24 -11 27 4 17 19 -13z m-943 -32 c0 -5 -9 -4 -19 3 -11 7 -17
16 -14 20 5 10 33 -10 33 -23z m-130 4 c0 -5 -5 -15 -10 -23 -7 -12 -9 -10 -7
8 1 19 17 33 17 15z m65 -22 c-6 -5 -25 10 -25 20 0 5 6 4 14 -3 8 -7 12 -15
11 -17z m790 0 c9 -16 -9 -20 -23 -5 -10 12 -10 14 2 14 8 0 17 -4 21 -9z
m-680 -11 c3 -5 2 -10 -4 -10 -5 0 -13 5 -16 10 -3 6 -2 10 4 10 5 0 13 -4 16
-10z m967 -9 c-1 -7 2 -10 8 -6 11 6 49 -32 50 -49 0 -5 -3 -6 -7 -3 -3 4 -12
2 -20 -4 -13 -12 -18 -2 -14 29 2 10 -4 12 -19 7 -19 -6 -21 -5 -11 13 7 14 7
22 1 25 -6 3 -5 4 2 3 7 -2 12 -9 10 -15z m-1242 -15 c0 -3 -4 -8 -10 -11 -5
-3 -10 -1 -10 4 0 6 5 11 10 11 6 0 10 -2 10 -4z m120 -16 c0 -5 -2 -10 -4
-10 -3 0 -8 5 -11 10 -3 6 -1 10 4 10 6 0 11 -4 11 -10z m1019 -4 c9 -11 9
-16 1 -21 -7 -4 -10 -16 -7 -26 3 -10 0 -20 -7 -22 -15 -6 -46 11 -46 25 0 9
3 9 12 0 18 -18 31 -14 25 8 -3 11 -1 18 4 14 10 -6 12 9 2 19 -3 4 -15 0 -25
-10 -16 -14 -18 -14 -18 0 0 13 11 20 41 26 4 0 12 -5 18 -13z m-1052 -12 c-3
-3 -12 -4 -19 -1 -8 3 -5 6 6 6 11 1 17 -2 13 -5z m273 -4 c0 -5 -4 -10 -10
-10 -5 0 -10 5 -10 10 0 6 5 10 10 10 6 0 10 -4 10 -10z m-320 -10 c0 -5 -5
-10 -11 -10 -5 0 -7 5 -4 10 3 6 8 10 11 10 2 0 4 -4 4 -10z m263 -7 c-8 -3
-4 -19 13 -48 14 -26 20 -46 14 -50 -6 -3 -10 1 -10 9 0 9 -4 16 -10 16 -5 0
-10 -6 -10 -12 0 -7 -7 -2 -16 10 -18 25 -35 21 -27 -7 3 -10 0 -22 -6 -25 -6
-4 -11 0 -11 9 0 9 -5 13 -11 9 -6 -3 -9 -15 -6 -25 4 -14 0 -18 -17 -16 -11
1 -25 8 -31 14 -10 13 -55 7 -55 -7 0 -4 -9 -10 -20 -13 -25 -6 -25 -2 -1 24
11 12 24 18 30 14 6 -3 12 0 13 7 0 7 2 18 2 23 2 17 17 35 28 35 7 0 6 -5 -2
-15 -10 -12 -8 -20 9 -41 12 -15 21 -23 21 -18 0 5 14 23 30 41 20 21 28 38
23 49 -4 12 -2 15 8 12 8 -3 15 -10 15 -16 1 -7 2 -16 3 -22 0 -5 6 -10 11
-10 6 0 5 14 -4 34 -13 32 -13 33 7 28 12 -3 16 -7 10 -9z m-233 -3 c0 -5 -4
-10 -10 -10 -5 0 -10 5 -10 10 0 6 5 10 10 10 6 0 10 -4 10 -10z m105 0 c3 -5
1 -10 -4 -10 -6 0 -11 5 -11 10 0 6 2 10 4 10 3 0 8 -4 11 -10z m985 -6 c0 -8
-4 -12 -10 -9 -5 3 -10 10 -10 16 0 5 5 9 10 9 6 0 10 -7 10 -16z m80 6 c0 -5
-2 -10 -4 -10 -3 0 -8 5 -11 10 -3 6 -1 10 4 10 6 0 11 -4 11 -10z m-1006 -16
c3 -8 2 -12 -4 -9 -6 3 -10 -4 -10 -17 l0 -22 -16 23 c-14 19 -14 25 -3 32 20
12 26 11 33 -7z m-94 -7 c0 -7 -16 -32 -36 -56 -29 -34 -39 -39 -50 -30 -12
10 -12 15 3 33 10 12 11 15 3 9 -23 -21 -35 -15 -15 7 16 18 20 19 27 5 5 -8
14 -15 19 -15 6 0 7 5 4 10 -4 6 -1 9 6 8 7 -2 14 4 15 12 2 26 4 30 14 30 6
0 10 -6 10 -13z m1235 3 c11 -17 -5 -32 -21 -19 -7 6 -11 15 -8 20 7 12 21 11
29 -1z m-1357 -39 c-15 -5 -21 7 -13 26 7 17 8 17 15 -2 4 -11 3 -22 -2 -24z
m1216 11 c-7 -4 -8 -15 -3 -27 4 -11 8 -17 10 -12 5 20 7 28 8 37 0 6 10 10
21 10 17 0 19 -4 14 -27 -13 -56 -20 -62 -66 -56 -24 3 -47 10 -53 15 -7 7 -2
8 13 3 24 -7 31 9 7 19 -21 8 -19 26 4 26 10 0 24 7 31 15 7 9 15 13 19 10 3
-3 1 -9 -5 -13z m-1034 -12 c0 -5 -4 -10 -10 -10 -5 0 -10 5 -10 10 0 6 5 10
10 10 6 0 10 -4 10 -10z m930 -25 c0 -7 6 -16 13 -18 6 -3 -5 -6 -25 -6 -29
-1 -38 3 -38 15 0 14 3 14 15 4 9 -7 18 -10 22 -6 3 3 1 6 -5 6 -7 0 -12 7
-12 15 0 9 6 12 15 9 8 -4 15 -12 15 -19z m-1143 -7 c-3 -8 -6 -5 -6 6 -1 11
2 17 5 13 3 -3 4 -12 1 -19z m553 -37 c0 -7 5 -9 12 -5 6 4 8 3 5 -4 -11 -16
-40 -7 -43 14 -2 10 -8 20 -13 22 -6 2 -11 10 -11 17 0 9 8 6 25 -9 14 -13 25
-29 25 -35z m846 15 c-3 -24 -30 -34 -42 -15 -5 9 -2 10 9 6 13 -5 17 -1 17
16 0 17 -2 19 -10 7 -5 -8 -12 -11 -16 -7 -4 3 -1 13 6 22 17 20 41 1 36 -29z
m-993 -2 c-7 -3 -10 -11 -7 -19 3 -7 1 -16 -5 -20 -6 -3 -11 2 -11 13 0 21 8
32 24 31 7 0 6 -2 -1 -5z m-208 -42 c-8 -8 -25 10 -25 26 0 13 2 13 14 -4 8
-10 13 -21 11 -22z m251 26 c4 -7 3 -8 -4 -4 -16 9 -15 -7 0 -22 18 -18 4 -24
-17 -8 -16 12 -17 16 -6 30 16 19 18 19 27 4z m-418 -12 c-7 -8 -15 -12 -17
-11 -5 6 10 25 20 25 5 0 4 -6 -3 -14z m302 -28 c0 -4 -7 -5 -15 -2 -8 4 -15
16 -15 27 0 20 0 20 15 1 8 -10 15 -22 15 -26z m357 30 c-2 -7 2 -27 9 -44 11
-27 11 -31 -9 -44 -12 -8 -26 -14 -30 -15 -4 0 -12 -7 -17 -15 -5 -8 -12 -12
-15 -8 -4 3 2 15 11 27 14 15 20 18 27 8 6 -8 7 -6 3 6 -3 10 -1 28 5 40 9 16
9 22 0 25 -9 3 -9 7 0 18 14 17 22 18 16 2z m538 -14 c99 -25 199 -79 255
-137 l51 -52 4 -497 c3 -326 2 -499 -5 -503 -6 -4 -10 14 -10 47 0 38 -8 70
-29 113 -28 58 -29 59 -39 35 -9 -19 -10 4 -6 93 2 65 1 123 -2 129 -4 6 -9
23 -10 37 -12 113 -17 131 -36 131 -18 0 -20 5 -14 44 6 39 4 47 -23 76 -33
37 -46 83 -29 109 10 16 2 34 -47 115 -32 53 -62 99 -66 102 -4 2 -19 -1 -34
-8 -22 -10 -28 -9 -41 10 -20 29 -30 28 -74 -12 -36 -33 -50 -38 -177 -62 -31
-6 -29 -24 2 -24 24 0 25 -2 25 -64 0 -36 -3 -67 -8 -70 -4 -2 -25 -7 -46 -11
-28 -6 -37 -5 -32 4 4 6 3 11 -2 11 -5 0 -12 -9 -15 -20 -3 -11 -1 -18 4 -14
5 3 9 1 9 -5 0 -6 6 -8 13 -6 9 4 13 -20 15 -95 3 -74 1 -100 -9 -100 -8 0
-10 15 -5 54 4 40 2 57 -8 65 -11 9 -19 6 -36 -19 -24 -33 -21 -51 5 -30 13
11 15 5 15 -49 0 -58 -1 -61 -24 -61 -31 0 -74 -22 -69 -36 2 -6 0 -29 -5 -50
-6 -27 -5 -48 4 -69 13 -29 13 -28 14 28 0 54 2 58 20 52 16 -5 20 -2 20 18 0
27 36 49 67 41 10 -3 34 2 53 10 l35 15 -52 1 c-29 0 -53 5 -53 10 0 9 50 14
120 13 14 -1 28 4 32 11 3 6 35 12 70 14 74 3 100 10 93 23 -4 5 -14 5 -25 -1
-31 -16 -36 -12 -32 28 7 76 -64 120 -111 68 -40 -43 -48 -56 -37 -56 5 0 9
-15 9 -32 -2 -31 -2 -31 -6 -5 -6 36 -23 35 -23 -3 0 -19 -5 -30 -14 -30 -9 0
-12 7 -9 20 4 16 2 19 -11 14 -14 -5 -16 -2 -11 22 4 16 8 34 10 41 2 6 -1 13
-8 16 -8 2 -7 14 4 42 13 35 19 40 59 48 25 4 52 11 60 14 8 3 26 6 40 5 l25
-1 -25 8 c-22 8 -19 9 20 12 83 5 115 4 121 -5 10 -13 29 3 22 19 -4 11 2 15
22 15 20 0 26 -4 22 -15 -4 -8 4 -22 18 -34 21 -15 25 -29 27 -72 1 -36 3 -43
5 -21 2 17 8 32 12 32 15 0 51 -88 50 -121 0 -32 -1 -30 -14 16 -8 28 -14 54
-15 59 0 5 -8 2 -17 -6 -28 -24 -54 -19 -47 8 3 12 1 25 -4 28 -11 7 -22 -38
-15 -64 3 -10 11 -16 18 -14 7 3 15 -2 19 -12 5 -13 2 -15 -13 -11 -10 2 -24
1 -31 -3 -7 -4 -1 -7 15 -7 14 0 32 -6 38 -12 8 -8 2 -11 -26 -11 -23 0 -39 6
-45 16 -11 20 -34 10 -25 -11 3 -11 -2 -15 -18 -16 -13 0 -35 -3 -49 -5 -14
-3 -48 -5 -77 -6 -38 -1 -48 -4 -40 -12 5 -7 17 -12 26 -12 9 -1 40 -5 69 -9
39 -6 52 -4 52 5 0 7 8 10 20 7 13 -3 20 0 20 9 0 8 5 14 10 14 6 0 10 -9 10
-20 0 -11 -5 -20 -11 -20 -6 0 -4 -7 4 -14 14 -15 11 -64 -7 -107 -4 -10 -3
-20 3 -24 6 -3 11 -33 11 -66 0 -93 16 -69 18 28 2 99 12 127 12 35 0 -81 12
-110 52 -124 l33 -12 -25 -10 c-26 -11 -40 -52 -14 -42 7 3 16 1 19 -4 4 -6 1
-10 -5 -10 -6 0 -19 -8 -28 -17 -15 -15 -15 -16 -1 -11 9 4 22 1 28 -5 13 -13
15 -31 2 -22 -5 3 -13 0 -17 -6 -4 -8 -3 -9 4 -5 8 5 11 -3 8 -23 -2 -17 1
-31 7 -31 5 0 3 -8 -5 -17 -15 -19 -13 -57 3 -48 5 4 9 1 9 -4 0 -6 -4 -11 -9
-11 -5 0 -11 -11 -13 -24 -3 -16 -1 -23 7 -20 7 3 15 -2 19 -11 3 -9 2 -13 -4
-10 -6 3 -10 0 -10 -9 0 -8 6 -16 12 -18 8 -3 2 -15 -17 -32 -26 -23 -27 -26
-10 -25 36 2 38 -1 14 -20 l-24 -20 23 6 c22 5 23 4 12 -14 -9 -13 -10 -30 -5
-49 12 -42 12 -106 0 -110 -48 -15 -279 -28 -342 -19 -28 4 -43 11 -43 21 0
18 -9 18 -29 0 -14 -12 -27 -12 -84 -1 -37 7 -73 18 -81 24 -14 12 -14 84 3
202 4 33 5 75 2 91 -11 55 3 159 22 170 17 9 17 11 -2 27 -22 19 -28 41 -11
41 6 0 10 -5 10 -11 0 -6 7 -17 16 -26 8 -9 13 -21 10 -28 -3 -10 3 -10 27 -2
18 5 38 11 45 13 14 4 17 44 2 44 -5 0 -10 5 -10 10 0 14 44 12 59 -2 10 -11
11 -10 6 5 -4 10 -2 17 4 17 6 0 11 -6 12 -12 0 -10 2 -10 6 0 2 6 15 12 28
12 13 0 27 5 30 10 3 6 2 10 -3 10 -5 0 -12 9 -15 21 -7 25 -28 21 -41 -8 -11
-23 -106 -50 -106 -30 0 7 -4 7 -12 -1 -7 -7 -20 -12 -30 -12 -16 0 -17 11
-15 125 1 69 0 125 -4 125 -8 0 -16 -72 -18 -165 -2 -38 -7 -74 -12 -80 -10
-10 -12 1 -10 90 l1 60 -46 -70 c-38 -59 -71 -95 -75 -83 -5 12 -7 626 -2 711
l6 109 49 48 c96 95 298 166 438 154 36 -3 92 -12 125 -20z m-1075 7 c0 -5 10
-13 23 -17 12 -4 45 -17 74 -30 57 -26 67 -29 58 -15 -3 5 -1 12 5 16 16 10
12 -12 -11 -56 -19 -39 -19 -40 -1 -30 11 6 23 7 28 3 5 -4 2 1 -5 11 -8 9
-11 20 -8 23 6 7 47 -18 47 -29 0 -4 14 -21 31 -37 l32 -28 -78 -1 c-68 0 -76
2 -71 17 6 16 5 16 -8 0 -16 -22 -30 -23 -46 -3 -7 8 -16 12 -21 9 -5 -3 -9 0
-9 5 0 6 9 11 20 11 11 0 20 -7 20 -15 0 -8 5 -15 11 -15 5 0 8 4 5 9 -3 5 1
11 9 15 21 8 19 29 -3 24 -13 -4 -17 1 -17 16 0 12 -4 23 -10 24 -5 2 -16 9
-24 15 -12 10 -14 9 -9 -5 6 -13 0 -16 -38 -14 -25 1 -44 -2 -44 -8 0 -6 -3
-22 -6 -36 -5 -24 -5 -24 10 -6 18 23 21 14 5 -12 -11 -18 -13 -18 -35 3 -28
26 -30 35 -9 35 9 0 15 9 14 23 0 12 -3 16 -6 10 -7 -18 -23 -16 -23 2 0 11
11 14 50 11 39 -3 55 1 72 17 21 18 21 19 3 12 -43 -16 -58 -18 -51 -7 4 7 14
12 22 12 20 0 18 9 -8 31 -13 10 -17 18 -10 19 6 0 12 -4 12 -9z m80 -11 c0
-5 -2 -10 -4 -10 -3 0 -8 5 -11 10 -3 6 -1 10 4 10 6 0 11 -4 11 -10z m40 -32
c0 -6 -7 -5 -15 2 -8 7 -15 17 -15 22 0 6 7 5 15 -2 8 -7 15 -17 15 -22z m295
22 c3 -5 -1 -10 -10 -10 -9 0 -13 5 -10 10 3 6 8 10 10 10 2 0 7 -4 10 -10z
m44 -13 c-4 -35 1 -40 21 -22 11 10 20 13 20 7 0 -7 -4 -12 -8 -12 -5 0 -14
-12 -21 -27 -11 -25 -14 -26 -22 -10 -6 9 -7 22 -3 28 4 7 1 10 -7 7 -8 -3
-13 -15 -12 -27 3 -19 0 -20 -17 -11 -11 6 -17 16 -14 25 4 8 1 15 -6 15 -6 0
-8 -4 -5 -10 3 -5 1 -10 -6 -10 -7 0 -3 -10 9 -23 12 -13 19 -26 16 -30 -4 -4
1 -9 10 -13 13 -5 14 -9 5 -20 -14 -17 2 -18 21 -1 12 10 12 9 2 -4 -13 -17
-62 -23 -62 -8 0 5 5 9 12 9 6 0 4 8 -6 19 -10 11 -15 25 -11 31 4 6 2 17 -5
24 -6 8 -8 25 -5 39 6 23 10 24 47 19 36 -4 40 -3 35 12 -4 10 -3 15 3 11 6
-4 10 -12 9 -18z m-189 -11 c0 -22 -2 -23 -24 -13 -21 10 -22 13 -7 24 24 18
31 16 31 -11z m59 8 c4 3 13 0 21 -5 12 -7 12 -11 2 -17 -8 -5 -10 -16 -6 -27
5 -13 4 -16 -5 -11 -7 5 -10 18 -7 30 4 16 1 23 -9 23 -8 0 -15 -6 -15 -13 0
-7 -12 -22 -27 -35 -27 -20 -27 -21 -4 -14 18 6 22 4 15 -6 -6 -12 -5 -12 8
-1 13 10 22 11 37 2 22 -11 27 -25 12 -34 -5 -3 -7 -15 -4 -26 5 -17 0 -20
-30 -20 -38 0 -56 22 -36 46 9 11 9 13 -2 9 -18 -6 -35 5 -43 30 -5 17 0 23
26 30 18 6 32 13 30 18 -1 4 3 14 10 21 7 8 15 10 16 5 2 -5 7 -7 11 -5z
m-124 -34 c3 -5 -1 -10 -9 -10 -9 0 -16 5 -16 10 0 6 4 10 9 10 6 0 13 -4 16
-10z m-327 -22 c14 -14 16 -32 3 -23 -5 3 -13 0 -17 -6 -9 -15 -24 9 -17 28 6
16 15 17 31 1z m191 -30 c-9 -16 -14 -19 -17 -9 -2 7 2 17 9 22 20 13 21 11 8
-13z m-193 -44 c-15 -14 -30 -24 -32 -21 -3 3 2 11 11 18 9 8 21 19 28 25 7 7
14 10 17 8 2 -3 -8 -16 -24 -30z m154 20 c0 -8 -5 -12 -10 -9 -6 4 -8 11 -5
16 9 14 15 11 15 -7z m10 -40 c0 -2 -7 -4 -15 -4 -8 0 -15 4 -15 10 0 5 7 7
15 4 8 -4 15 -8 15 -10z m1027 -16 c-2 -7 -1 -22 4 -34 10 -29 21 -99 13 -91
-3 3 -13 -1 -21 -9 -8 -8 -19 -12 -24 -9 -14 9 -11 105 4 106 10 0 10 2 0 6
-26 10 -12 39 20 42 5 1 7 -5 4 -11z m-59 -25 c1 -10 5 -41 8 -69 l6 -51 -51
-10 c-44 -9 -51 -8 -52 6 -1 9 -2 25 -3 36 0 13 -8 20 -21 20 -17 0 -20 -6
-17 -38 2 -32 -1 -38 -23 -47 -15 -6 -37 -10 -51 -10 -22 0 -24 4 -24 50 0 28
4 50 10 50 5 0 7 6 4 14 -5 12 10 23 41 32 139 37 170 40 173 17z m-583 -410
c7 -386 4 -657 -6 -668 -3 -2 -38 -5 -78 -6 -67 -2 -75 0 -95 23 -21 26 -22
26 -45 7 -23 -19 -57 -26 -47 -10 3 5 -5 9 -18 9 -18 0 -26 -8 -31 -27 -4 -14
-10 -20 -12 -13 -3 8 -28 12 -74 12 -55 0 -69 -3 -69 -15 0 -8 6 -15 13 -15 8
0 7 -4 -3 -10 -11 -7 -3 -9 28 -8 23 1 42 6 42 11 0 6 3 7 7 4 3 -4 11 -2 18
3 8 7 20 1 39 -19 23 -24 25 -29 11 -35 -9 -3 -13 -2 -10 3 3 5 1 12 -5 16
-16 10 -12 -21 5 -35 8 -7 15 -9 15 -4 0 4 9 -2 20 -14 12 -12 29 -22 39 -22
10 0 18 -7 18 -15 0 -8 -9 -15 -19 -15 -10 0 -18 5 -18 10 0 6 -9 10 -19 10
-11 0 -21 5 -23 11 -2 6 -15 12 -28 13 -19 1 -26 7 -28 27 -4 31 -34 44 -64
28 -15 -8 -18 -17 -13 -37 6 -26 6 -26 -10 -7 -16 19 -16 19 -11 -10 3 -16 3
-24 0 -17 -3 6 -9 10 -13 7 -5 -2 -14 7 -21 20 -7 14 -17 25 -22 25 -5 0 -7 4
-4 9 3 5 -1 14 -9 21 -8 7 -12 16 -9 22 3 5 -4 17 -15 27 -21 18 -21 24 -19
367 3 326 4 349 21 346 9 -2 17 2 17 8 0 5 -9 10 -20 10 -16 0 -20 7 -20 30
l0 30 155 0 c132 0 155 2 155 15 0 8 9 23 20 32 26 22 25 27 -4 41 -29 13
-253 14 -261 1 -4 -5 -19 -9 -36 -9 l-29 0 6 77 c6 79 14 111 14 56 0 -37 21
-39 58 -5 14 12 31 22 38 22 8 0 14 6 14 13 0 8 4 7 10 -3 8 -12 10 -11 10 8
0 19 3 21 19 12 14 -7 21 -6 24 3 3 8 9 7 19 -6 13 -18 15 -17 28 7 16 32 9
41 -20 26 -17 -9 -24 -9 -30 0 -5 7 -36 11 -94 9 -47 -1 -89 1 -93 5 -3 3 124
6 284 6 l291 0 7 -417z m1575 27 c0 -349 -2 -390 -16 -390 -9 0 -14 -6 -11
-12 2 -7 10 -12 16 -11 6 2 11 -2 11 -8 0 -6 -15 -9 -34 -8 -19 2 -38 0 -42
-4 -12 -12 -24 -8 -24 8 0 9 -9 15 -24 15 -35 0 -45 19 -49 90 -3 59 -6 65
-28 70 -22 6 -24 11 -27 84 -2 45 1 83 8 90 7 10 6 16 -3 25 -19 15 -31 180
-16 214 9 21 8 28 -10 46 -15 15 -21 34 -21 64 0 24 -6 52 -14 63 -15 19 -15
19 -30 -1 -19 -24 -20 -35 -4 -35 9 0 9 -3 0 -12 -15 -15 -16 -48 0 -48 6 0 0
-13 -15 -28 -26 -27 -37 -72 -18 -72 5 0 14 12 20 28 8 21 10 4 7 -78 -2 -103
-3 -106 -35 -139 -22 -23 -29 -37 -22 -44 13 -13 53 21 44 37 -4 7 -2 8 5 1
12 -11 19 -156 8 -174 -4 -6 -15 -11 -25 -11 -28 0 -59 -41 -56 -75 3 -43 4
-45 16 -45 8 0 8 4 1 13 -21 26 -2 80 26 71 14 -5 15 -4 2 5 -13 9 -13 11 2
11 15 0 17 -7 12 -47 -7 -59 -13 -78 -21 -70 -3 4 -22 -6 -42 -22 -20 -15 -43
-30 -51 -33 -11 -3 -7 -9 13 -23 l28 -18 -22 -23 c-16 -17 -26 -21 -35 -13 -8
7 -14 6 -20 -2 -4 -7 0 -18 10 -25 22 -16 11 -37 -15 -29 -11 4 -19 2 -19 -5
0 -6 4 -9 9 -5 5 3 13 0 17 -6 5 -8 -1 -10 -22 -6 -16 3 -37 1 -46 -4 -23 -13
-12 -39 17 -39 13 0 26 -4 29 -9 6 -10 -54 -24 -63 -15 -3 3 -7 239 -9 525
l-3 519 296 0 295 0 0 -390z m-844 237 c9 -30 -4 -33 -16 -3 -5 15 -17 34 -25
42 -8 9 -15 23 -15 32 0 18 46 -40 56 -71z m-246 59 c0 -3 -4 -8 -10 -11 -5
-3 -10 -1 -10 4 0 6 5 11 10 11 6 0 10 -2 10 -4z m206 -342 c-21 -20 -28 -17
-16 6 6 11 15 18 21 15 5 -4 3 -12 -5 -21z m614 -13 c0 -5 -7 -11 -14 -14 -10
-4 -13 -1 -9 9 6 15 23 19 23 5z m-87 -16 c-3 -9 -8 -14 -10 -11 -3 3 -2 9 2
15 9 16 15 13 8 -4z m-425 -46 c17 -24 39 -51 48 -61 12 -12 15 -33 13 -87 -2
-44 -7 -70 -14 -67 -11 4 -12 -44 -1 -62 4 -7 3 -12 -2 -12 -18 0 -33 28 -35
64 -2 19 -6 38 -10 42 -4 4 -7 19 -6 33 l1 26 7 -25 c8 -24 8 -24 24 14 10 22
15 41 12 44 -3 3 -5 0 -5 -6 0 -7 -4 -12 -10 -12 -5 0 -10 11 -10 25 0 30 -28
77 -41 69 -5 -3 -9 8 -9 25 0 16 -5 32 -10 34 -6 3 -5 4 2 3 7 -1 28 -22 46
-47z m36 36 c-4 -8 -8 -15 -10 -15 -2 0 -4 7 -4 15 0 8 4 15 10 15 5 0 7 -7 4
-15z m-116 -7 c-2 -6 -10 -14 -16 -16 -7 -2 -10 2 -6 12 7 18 28 22 22 4z
m-536 -20 c-7 -7 -12 -8 -12 -2 0 6 3 14 7 17 3 4 9 5 12 2 2 -3 -1 -11 -7
-17z m1149 3 c-12 -8 -51 -4 -51 5 0 2 15 4 33 4 22 0 28 -3 18 -9z m-615 -81
c0 -11 -6 -20 -13 -20 -7 0 -13 9 -13 20 0 11 6 20 13 20 7 0 13 -9 13 -20z
m31 -32 c-3 -7 -5 -2 -5 12 0 14 2 19 5 13 2 -7 2 -19 0 -25z m33 -12 c0 -26
-6 -18 -14 19 -5 22 -4 26 4 15 5 -8 10 -24 10 -34z m550 -6 c0 -5 -2 -10 -4
-10 -3 0 -8 5 -11 10 -3 6 -1 10 4 10 6 0 11 -4 11 -10z m-550 -56 c0 -22 -16
-17 -17 6 -1 11 2 18 8 15 5 -4 9 -13 9 -21z m580 16 c0 -5 -4 -10 -10 -10 -5
0 -10 5 -10 10 0 6 5 10 10 10 6 0 10 -4 10 -10z m10 -34 c0 -3 -4 -8 -10 -11
-5 -3 -10 -1 -10 4 0 6 5 11 10 11 6 0 10 -2 10 -4z m-10 -59 c9 -3 4 -6 -11
-6 -15 -1 -29 6 -33 14 -4 12 -2 13 12 7 9 -5 24 -12 32 -15z m-90 3 c0 -5 -2
-10 -4 -10 -3 0 -8 5 -11 10 -3 6 -1 10 4 10 6 0 11 -4 11 -10z m-1 -42 c11
-18 11 -20 -4 -14 -9 3 -23 6 -31 6 -21 0 -17 26 4 27 10 1 24 -8 31 -19z
m-99 -13 c-7 -8 -18 -15 -24 -15 -6 0 -2 7 8 15 25 19 32 19 16 0z m16 -30
c-11 -8 -22 -12 -25 -9 -6 6 19 24 34 24 6 -1 1 -7 -9 -15z m184 5 c0 -5 -2
-10 -4 -10 -3 0 -8 5 -11 10 -3 6 -1 10 4 10 6 0 11 -4 11 -10z m104 -24 c-4
-11 -12 -24 -18 -28 -7 -5 -6 -8 4 -9 8 -1 20 -2 25 -4 6 -1 16 -3 23 -3 6 -1
12 -6 12 -12 0 -5 -13 -7 -31 -3 l-30 6 4 -56 c2 -31 0 -54 -5 -51 -4 3 -8 -5
-7 -18 0 -13 2 -18 5 -13 7 16 124 6 124 -11 0 -11 -16 -14 -67 -14 -77 0 -77
-13 0 -16 70 -3 67 -3 67 -14 0 -6 -10 -15 -22 -20 l-23 -9 23 0 c16 -1 22 -7
22 -24 0 -21 -4 -23 -52 -21 -29 1 -56 2 -59 3 -22 3 -40 81 -46 188 -3 65 -7
120 -9 122 -2 2 7 11 19 21 27 23 50 15 41 -14z m101 24 c3 -5 2 -10 -4 -10
-5 0 -13 5 -16 10 -3 6 -2 10 4 10 5 0 13 -4 16 -10z m-339 -8 c8 -4 12 -40
11 -97 -1 -78 -3 -92 -21 -107 -12 -10 -16 -17 -10 -18 5 0 15 5 22 12 9 9 12
8 12 -4 0 -9 -7 -18 -15 -22 -8 -3 -15 -11 -15 -17 0 -8 5 -7 16 2 14 11 15 8
13 -32 -4 -84 -9 -79 90 -79 49 0 91 3 93 8 2 4 36 5 76 4 73 -4 73 -4 70 -30
l-3 -27 -291 -2 -292 -3 0 84 c1 46 4 89 7 94 4 6 32 7 76 2 39 -4 73 -5 78
-3 4 2 6 30 5 61 -1 42 -7 62 -22 75 -10 9 -16 20 -11 25 4 4 10 1 12 -5 9
-26 23 -12 23 22 0 27 6 37 28 49 32 18 33 18 48 8z m301 1 c-4 -3 -2 -12 4
-20 8 -9 8 -13 1 -13 -6 0 -14 5 -17 10 -6 10 2 30 12 30 4 0 3 -3 0 -7z
m-1481 -51 c1 -20 5 -49 8 -64 4 -16 2 -28 -3 -28 -5 0 -8 -20 -6 -45 2 -40
-8 -62 -17 -35 -6 18 3 222 10 215 4 -3 7 -23 8 -43z m84 -103 c-6 -68 -12
-137 -15 -154 -2 -16 -5 -60 -6 -97 -3 -63 -5 -68 -24 -62 -46 14 -55 33 -53
108 2 70 2 71 5 13 5 -69 23 -67 23 3 0 27 7 98 16 157 9 59 18 117 19 128 1
11 3 24 4 28 0 5 6 5 11 2 6 -3 10 -1 10 6 0 9 3 10 11 2 7 -7 7 -47 -1 -134z
m1440 115 c0 -8 -5 -12 -10 -9 -6 4 -8 11 -5 16 9 14 15 11 15 -7z m-32 -22
c6 -18 -15 -14 -22 4 -4 10 -1 14 6 12 6 -2 14 -10 16 -16z m-188 -2 c0 -5 -2
-10 -4 -10 -3 0 -8 5 -11 10 -3 6 -1 10 4 10 6 0 11 -4 11 -10z m216 -37 c-11
-11 -17 4 -9 23 7 18 8 18 11 1 2 -10 1 -21 -2 -24z m-185 10 c8 -8 0 -11 -32
-10 -23 1 -44 7 -46 13 -5 14 63 12 78 -3z m-114 -55 c-3 -7 -5 -2 -5 12 0 14
2 19 5 13 2 -7 2 -19 0 -25z m248 2 c8 0 15 -5 15 -11 0 -5 5 -7 11 -4 6 4 5
-2 -3 -14 l-13 -21 -22 25 c-13 13 -23 32 -23 42 1 17 1 17 11 1 5 -10 17 -18
24 -18z m20 20 c3 -5 2 -10 -4 -10 -5 0 -13 5 -16 10 -3 6 -2 10 4 10 5 0 13
-4 16 -10z m-685 -37 c0 -29 -12 -24 -17 7 -2 11 2 20 7 20 6 0 10 -12 10 -27z
m235 -1 c0 -18 -20 -15 -23 4 -3 10 1 15 10 12 7 -3 13 -10 13 -16z m315 -13
c0 -5 -3 -8 -7 -8 -20 3 -24 -2 -13 -16 7 -9 8 -15 2 -15 -13 0 -23 26 -16 44
6 15 34 11 34 -5z m167 -1 c-3 -8 -6 -5 -6 6 -1 11 2 17 5 13 3 -3 4 -12 1
-19z m-817 8 c0 -3 -4 -8 -10 -11 -5 -3 -10 -1 -10 4 0 6 5 11 10 11 6 0 10
-2 10 -4z m519 -23 c0 -25 -1 -25 -8 -8 -5 11 -7 23 -4 28 8 14 13 7 12 -20z
m-150 -7 c-2 -2 -17 -6 -34 -10 l-30 -7 30 19 c17 10 32 15 34 10 1 -5 1 -11
0 -12z m-204 -25 c3 -5 1 -12 -4 -15 -5 -3 -11 1 -15 9 -6 16 9 21 19 6z m370
-11 c3 -5 1 -10 -4 -10 -6 0 -11 5 -11 10 0 6 2 10 4 10 3 0 8 -4 11 -10z
m-1343 -42 c-2 -10 1 -18 7 -18 6 0 12 10 12 23 l2 22 4 -23 c3 -13 11 -26 18
-28 9 -4 12 -16 8 -37 -3 -18 -4 -42 -4 -54 0 -14 -5 -23 -14 -23 -18 0 -32
23 -17 28 9 3 9 9 1 25 -21 41 -41 58 -54 47 -9 -8 -14 -6 -19 6 -4 9 -4 19
-1 22 3 3 5 0 5 -8 0 -10 3 -10 14 0 8 6 13 17 10 24 -2 6 4 12 14 12 13 0 18
-6 14 -18z m103 12 c3 -5 1 -10 -4 -10 -6 0 -11 5 -11 10 0 6 2 10 4 10 3 0 8
-4 11 -10z m-610 -10 c3 -5 2 -10 -4 -10 -5 0 -13 5 -16 10 -3 6 -2 10 4 10 5
0 13 -4 16 -10z m1402 -42 c-3 -7 -5 -2 -5 12 0 14 2 19 5 13 2 -7 2 -19 0
-25z m-1398 13 c17 -11 24 -58 9 -67 -7 -4 -8 -2 -4 4 4 7 2 12 -3 12 -6 0
-11 -4 -11 -10 0 -5 -4 -10 -8 -10 -4 0 -9 18 -10 40 -3 41 2 47 27 31z m1931
-7 c0 -2 -9 -4 -21 -4 -11 0 -18 4 -14 10 5 8 35 3 35 -6z m-1500 -4 c0 -5 -4
-10 -10 -10 -5 0 -10 5 -10 10 0 6 5 10 10 10 6 0 10 -4 10 -10z m1450 6 c0
-2 -7 -6 -15 -10 -8 -3 -15 -1 -15 4 0 6 7 10 15 10 8 0 15 -2 15 -4z m-1580
-46 c0 -6 -9 -5 -20 2 -11 7 -20 16 -20 21 0 4 9 3 20 -3 11 -6 20 -15 20 -20z
m1620 10 c0 -5 -2 -10 -4 -10 -3 0 -8 5 -11 10 -3 6 -1 10 4 10 6 0 11 -4 11
-10z m-1565 -60 c3 -5 1 -10 -4 -10 -6 0 -11 5 -11 10 0 6 2 10 4 10 3 0 8 -4
11 -10z m-308 -6 c-3 -3 -12 -4 -19 -1 -8 3 -5 6 6 6 11 1 17 -2 13 -5z m544
-58 c17 -16 59 -32 125 -49 l99 -25 -58 -7 c-50 -6 -55 -9 -40 -20 11 -9 25
-10 40 -4 12 4 25 4 28 0 3 -5 17 -7 33 -5 15 3 42 5 59 6 18 0 30 4 27 9 -3
5 0 9 5 9 6 0 11 -5 11 -11 0 -8 4 -8 13 -1 7 6 28 7 52 3 67 -12 257 -4 266
11 6 9 9 9 9 1 0 -8 27 -12 85 -12 53 0 85 3 85 10 0 6 -10 10 -22 9 -13 -1
-45 -1 -73 0 l-50 2 56 12 c31 7 79 10 111 6 31 -3 64 -3 74 0 10 4 35 4 55 0
39 -7 78 4 49 14 -31 11 -77 13 -127 6 -59 -7 -69 1 -23 20 16 7 35 18 41 26
9 11 65 14 296 14 l284 0 -21 -30 -22 -31 -192 4 c-106 2 -197 2 -204 -1 -18
-6 -14 -21 6 -20 9 0 98 -1 197 -2 l180 -2 -63 -58 c-50 -47 -71 -59 -108 -65
-27 -4 -50 -2 -58 4 -9 7 -22 7 -44 -1 -25 -10 -37 -10 -51 -1 -13 8 -31 9
-61 2 -23 -5 -52 -6 -64 -2 -36 12 -139 3 -159 -15 -17 -15 -21 -15 -49 1 -16
9 -34 15 -39 12 -5 -4 -6 0 -3 8 5 15 -41 41 -57 32 -5 -4 -9 -2 -9 3 0 13
-91 3 -109 -12 -12 -9 -13 -8 -7 3 7 10 1 12 -30 8 -56 -8 -101 -28 -114 -51
-9 -19 -10 -18 -5 7 6 30 -10 36 -46 16 -22 -11 -178 -18 -185 -8 -2 4 -16 4
-32 -1 -22 -6 -32 -2 -54 18 l-28 26 -52 -37 c-41 -28 -54 -33 -56 -22 -3 13
-20 15 -104 12 -70 -3 -103 -8 -110 -18 -8 -11 -9 -11 -5 3 8 24 -16 29 -44 7
-28 -22 -39 -24 -39 -6 0 7 -16 13 -41 14 -29 2 -52 12 -85 39 -40 33 -62 67
-32 48 17 -11 48 -12 78 -4 14 4 38 3 53 -1 16 -4 40 -4 53 1 13 5 24 6 24 1
0 -5 15 -7 33 -6 17 2 40 3 50 4 9 1 17 5 17 10 0 4 -74 8 -164 9 -157 0 -206
8 -206 32 0 6 7 10 16 10 8 0 13 4 9 10 -3 5 -13 6 -22 3 -15 -6 -43 19 -43
39 0 4 127 8 283 8 l282 0 26 -24z m899 20 c0 -2 -7 -6 -15 -10 -8 -3 -15 -1
-15 4 0 6 7 10 15 10 8 0 15 -2 15 -4z m-740 -221 c-7 -9 -15 -13 -17 -11 -7
7 7 26 19 26 6 0 6 -6 -2 -15z m243 -52 c-24 -16 -32 -66 -13 -78 6 -3 10 3
10 14 0 11 10 25 22 32 18 10 20 9 14 -6 -8 -21 1 -55 15 -55 5 0 9 5 9 10 0
6 10 24 21 40 20 26 24 27 43 15 13 -9 38 -12 66 -9 l46 4 -3 -37 -4 -38 15
26 c21 36 59 42 86 14 16 -17 18 -24 8 -28 -7 -3 4 -6 25 -6 20 -1 37 3 37 9
0 5 -7 7 -15 4 -9 -4 -19 5 -28 28 -8 18 -12 36 -10 41 7 12 77 7 103 -8 39
-22 53 -19 46 10 -7 29 15 45 37 27 8 -7 18 -7 27 -2 20 13 110 12 110 0 0 -7
7 -7 20 0 11 6 44 10 73 8 l52 -3 -75 -37 c-90 -43 -203 -79 -342 -110 -92
-20 -130 -23 -348 -22 -160 0 -254 4 -270 11 -24 11 -24 12 -2 12 12 1 22 6
22 12 0 6 -6 9 -14 6 -8 -3 -17 1 -20 9 -5 12 -8 13 -20 2 -7 -7 -12 -18 -9
-24 3 -8 -23 -5 -79 7 -121 28 -118 26 -80 59 35 29 69 30 69 2 0 -33 3 -42
14 -42 6 0 9 19 8 48 -1 26 1 53 5 60 9 15 92 16 101 2 4 -7 11 -7 18 -2 7 5
56 9 110 10 54 0 101 3 104 6 4 3 9 3 12 0 3 -3 -4 -13 -16 -21z m-437 -18
c-1 -19 -9 -42 -18 -52 -15 -14 -22 -15 -60 -4 -42 13 -188 80 -188 86 0 2 60
4 133 4 l134 1 -1 -35z"/>
<path d="M2079 3796 c-7 -25 -17 -46 -22 -46 -5 0 -6 -7 -3 -16 3 -8 2 -13 -3
-10 -5 3 -11 0 -14 -7 -3 -8 1 -14 9 -14 8 0 25 20 39 44 14 24 29 43 34 43 4
0 26 -20 48 -45 35 -40 42 -44 69 -36 25 7 37 2 92 -41 80 -62 81 -54 1 12
-51 42 -66 50 -89 45 -24 -5 -35 2 -87 56 l-60 62 -14 -47z"/>
<path d="M2429 3703 c-15 -48 -16 -53 -1 -65 12 -10 14 -10 8 -1 -4 7 -2 22 4
33 6 12 10 35 8 53 -3 30 -4 29 -19 -20z"/>
<path d="M2080 3674 c-41 -13 -89 -28 -106 -34 -17 -5 -38 -10 -47 -10 -9 0
-14 -6 -12 -12 3 -7 -4 -28 -16 -47 -17 -29 -24 -32 -49 -27 -16 3 -32 1 -35
-4 -4 -6 8 -10 28 -10 18 0 42 -8 53 -18 10 -9 31 -23 47 -29 15 -7 27 -17 27
-23 0 -5 5 -10 11 -10 5 0 7 4 4 10 -3 6 1 7 9 4 9 -3 14 -10 11 -14 -3 -5 -1
-11 4 -14 11 -7 23 66 12 77 -5 5 -21 10 -35 10 -14 1 -26 6 -26 11 0 4 -11 6
-25 4 -22 -5 -25 -3 -19 16 12 38 25 47 61 40 26 -5 39 -2 56 13 19 18 171 66
194 62 28 -5 22 4 -12 16 -49 18 -44 18 -135 -11z"/>
<path d="M1936 3665 c-3 -9 0 -15 9 -15 16 0 20 16 6 24 -5 3 -11 -1 -15 -9z"/>
<path d="M2316 3625 c25 -19 40 -19 24 0 -7 8 -20 15 -28 15 -13 0 -12 -3 4
-15z"/>
<path d="M2360 3597 c0 -8 8 -22 19 -31 17 -16 19 -16 25 0 4 9 5 17 4 18 -2
1 -13 7 -25 14 -19 10 -23 10 -23 -1z"/>
<path d="M2490 3589 c0 -5 5 -7 10 -4 6 3 10 8 10 11 0 2 -4 4 -10 4 -5 0 -10
-5 -10 -11z"/>
<path d="M2477 3484 c-9 -9 1 -24 16 -24 7 0 6 4 -3 11 -12 8 -9 10 12 6 15
-2 25 0 22 4 -6 10 -38 12 -47 3z"/>
<path d="M1850 3476 c0 -2 7 -9 15 -16 13 -11 14 -10 9 4 -5 14 -24 23 -24 12z"/>
<path d="M2172 3418 c-18 -18 -15 -36 7 -48 21 -10 24 -8 34 25 7 19 6 19 -7
1 -19 -24 -40 -12 -26 15 12 22 9 24 -8 7z"/>
<path d="M2001 3386 c-9 -10 -8 -16 4 -26 10 -9 15 -9 15 -1 0 6 -5 11 -11 11
-8 0 -8 5 1 15 7 8 10 15 7 15 -2 0 -10 -6 -16 -14z"/>
<path d="M2050 3367 c0 -11 -5 -15 -11 -11 -8 5 -8 1 0 -14 6 -11 20 -24 31
-27 11 -3 20 -11 20 -16 0 -6 -4 -8 -8 -5 -4 2 -9 -4 -9 -15 -2 -26 8 -24 30
6 15 21 15 25 3 25 -24 0 -29 20 -10 41 16 17 16 19 1 19 -10 0 -17 -5 -17
-12 0 -6 -7 -3 -15 8 -13 18 -14 18 -15 1z"/>
<path d="M2125 3370 c-3 -5 -1 -10 4 -10 6 0 11 5 11 10 0 6 -2 10 -4 10 -3 0
-8 -4 -11 -10z"/>
<path d="M2300 3360 c0 -13 11 -13 30 0 12 8 11 10 -7 10 -13 0 -23 -4 -23
-10z"/>
<path d="M1900 3350 c0 -5 5 -10 11 -10 5 0 7 5 4 10 -3 6 -8 10 -11 10 -2 0
-4 -4 -4 -10z"/>
<path d="M2160 3319 c0 -5 5 -7 10 -4 6 3 10 8 10 11 0 2 -4 4 -10 4 -5 0 -10
-5 -10 -11z"/>
<path d="M2220 3179 c0 -5 5 -7 10 -4 6 3 10 8 10 11 0 2 -4 4 -10 4 -5 0 -10
-5 -10 -11z"/>
<path d="M2880 3833 c0 -10 151 -192 167 -201 8 -5 13 -11 11 -14 -4 -6 24
-34 37 -36 6 0 12 -9 15 -19 7 -25 80 -123 91 -123 5 0 4 9 -3 20 -7 11 -16
20 -20 20 -5 0 -8 5 -8 11 0 7 10 9 28 5 15 -4 23 -3 17 1 -16 13 -36 53 -26
53 5 0 14 -7 21 -15 7 -8 21 -15 31 -15 10 0 21 -4 24 -10 4 -6 -1 -7 -12 -4
-15 5 -15 4 -3 -5 9 -6 18 -7 24 -1 10 10 -37 54 -202 193 -99 82 -133 104
-116 75 4 -7 -5 -2 -19 11 -15 14 -27 27 -27 29 0 3 9 -3 20 -13 11 -10 20
-14 20 -8 0 5 -9 18 -20 28 -12 11 -20 13 -20 6 0 -7 -5 -9 -10 -6 -6 4 -8 11
-5 16 4 5 1 9 -4 9 -6 0 -11 -3 -11 -7z m100 -89 c0 -8 -4 -12 -10 -9 -5 3
-10 10 -10 16 0 5 5 9 10 9 6 0 10 -7 10 -16z m34 -25 c-3 -5 4 -9 14 -9 22 0
37 -26 21 -36 -12 -7 -59 45 -59 65 0 11 3 11 15 1 8 -7 12 -16 9 -21z"/>
<path d="M3063 3814 c24 -7 21 -20 -5 -28 -34 -9 -38 -8 -38 9 0 8 -4 15 -10
15 -19 0 -10 -20 21 -42 17 -13 41 -22 54 -20 19 3 22 -1 18 -16 -4 -17 -1
-19 23 -14 19 3 25 1 20 -7 -4 -6 -12 -9 -17 -6 -5 4 -9 1 -9 -4 0 -18 24 -12
43 9 10 12 22 18 27 15 6 -4 22 3 35 14 15 11 21 22 15 26 -5 3 -10 2 -10 -4
0 -6 -7 -8 -16 -4 -13 5 -10 9 12 19 16 7 27 13 24 14 -16 5 -50 11 -85 16
-28 4 -36 3 -26 -4 8 -6 21 -8 30 -5 13 4 14 3 2 -5 -10 -7 -21 -7 -33 -1 -10
6 -23 7 -28 4 -6 -4 -9 -1 -8 7 2 8 -8 14 -27 15 -16 1 -22 -1 -12 -3z"/>
<path d="M2631 3794 c0 -11 3 -14 6 -6 3 7 2 16 -1 19 -3 4 -6 -2 -5 -13z"/>
<path d="M3302 3799 c2 -7 10 -15 17 -17 8 -3 12 1 9 9 -2 7 -10 15 -17 17 -8
3 -12 -1 -9 -9z"/>
<path d="M3271 3777 c-6 -6 -11 -17 -11 -24 0 -7 -4 -13 -10 -13 -5 0 -10 -5
-10 -11 0 -8 4 -8 15 1 8 6 19 9 24 6 5 -4 12 -2 16 3 3 6 12 8 20 4 22 -8 18
0 -9 24 -17 15 -27 18 -35 10z"/>
<path d="M2635 3740 c4 -6 11 -8 16 -5 14 9 11 15 -7 15 -8 0 -12 -5 -9 -10z"/>
<path d="M2708 3743 c7 -3 16 -2 19 1 4 3 -2 6 -13 5 -11 0 -14 -3 -6 -6z"/>
<path d="M2630 3670 c8 -5 20 -10 25 -10 6 0 3 5 -5 10 -8 5 -19 10 -25 10 -5
0 -3 -5 5 -10z"/>
<path d="M2730 3599 c0 -5 5 -7 10 -4 6 3 10 8 10 11 0 2 -4 4 -10 4 -5 0 -10
-5 -10 -11z"/>
<path d="M3240 3575 c13 -14 26 -25 28 -25 3 0 -5 11 -18 25 -13 14 -26 25
-28 25 -3 0 5 -11 18 -25z"/>
<path d="M3016 3572 c-16 -3 -16 -5 -1 -29 10 -14 12 -22 6 -19 -6 4 -9 2 -6
-6 3 -8 19 -15 35 -16 22 -2 28 2 27 15 -2 25 -40 59 -61 55z m32 -37 c-3 -3
-9 2 -12 12 -6 14 -5 15 5 6 7 -7 10 -15 7 -18z"/>
<path d="M2845 3550 c3 -5 10 -10 16 -10 5 0 9 5 9 10 0 6 -7 10 -16 10 -8 0
-12 -4 -9 -10z"/>
<path d="M2700 3520 c0 -11 4 -20 9 -20 11 0 22 26 14 34 -12 12 -23 5 -23
-14z"/>
<path d="M3450 3522 c0 -4 7 -18 16 -31 12 -17 13 -26 5 -34 -6 -6 -12 -8 -12
-4 -1 4 -3 12 -4 17 -1 6 -3 14 -4 20 0 5 -8 7 -17 3 -8 -3 -13 -12 -10 -19 3
-8 1 -14 -4 -14 -6 0 -10 -4 -10 -9 0 -5 19 -11 43 -12 l42 -4 -4 40 c-3 37
-14 54 -33 55 -5 0 -8 -3 -8 -8z"/>
<path d="M3505 3520 c3 -5 8 -10 11 -10 2 0 4 5 4 10 0 6 -5 10 -11 10 -5 0
-7 -4 -4 -10z"/>
<path d="M3537 3503 c-14 -14 -6 -32 28 -57 19 -15 32 -20 29 -13 -3 8 2 21
10 30 17 17 22 32 7 23 -4 -3 -17 1 -27 9 -21 16 -37 19 -47 8z m28 -23 c3 -5
-1 -10 -10 -10 -9 0 -13 5 -10 10 3 6 8 10 10 10 2 0 7 -4 10 -10z"/>
<path d="M3505 3491 c-3 -5 -1 -12 5 -16 5 -3 10 1 10 9 0 18 -6 21 -15 7z"/>
<path d="M2840 3470 c0 -5 5 -10 10 -10 6 0 10 5 10 10 0 6 -4 10 -10 10 -5 0
-10 -4 -10 -10z"/>
<path d="M3051 3464 c7 -9 14 -23 15 -31 3 -20 11 -26 23 -18 13 8 -13 50 -36
59 -14 6 -14 4 -2 -10z"/>
<path d="M2810 3459 c0 -5 5 -7 10 -4 6 3 10 8 10 11 0 2 -4 4 -10 4 -5 0 -10
-5 -10 -11z"/>
<path d="M3005 3459 c-11 -17 1 -21 15 -4 8 9 8 15 2 15 -6 0 -14 -5 -17 -11z"/>
<path d="M3355 3460 c3 -5 8 -10 11 -10 2 0 4 5 4 10 0 6 -5 10 -11 10 -5 0
-7 -4 -4 -10z"/>
<path d="M2595 3450 c3 -5 11 -10 16 -10 6 0 7 5 4 10 -3 6 -11 10 -16 10 -6
0 -7 -4 -4 -10z"/>
<path d="M3235 3450 c-3 -5 -1 -10 4 -10 6 0 11 5 11 10 0 6 -2 10 -4 10 -3 0
-8 -4 -11 -10z"/>
<path d="M3026 3434 c-21 -21 -20 -31 4 -29 22 1 41 15 21 15 -8 0 -11 7 -7
15 7 19 1 19 -18 -1z"/>
<path d="M3530 3436 c0 -2 7 -7 16 -10 8 -3 12 -2 9 4 -6 10 -25 14 -25 6z"/>
<path d="M3503 3379 c10 -6 24 -8 32 -5 9 3 12 0 8 -10 -8 -22 41 -18 62 6 18
20 17 20 -51 20 -53 -1 -65 -3 -51 -11z"/>
<path d="M3246 3368 c4 -7 23 -32 42 -55 29 -36 40 -43 71 -43 l36 0 -27 24
c-16 13 -28 31 -28 41 0 10 -3 15 -7 12 -3 -4 -13 -1 -21 6 -13 10 -15 9 -8
-7 7 -20 7 -20 -15 0 l-21 19 28 6 c25 6 23 7 -14 8 -32 1 -41 -2 -36 -11z"/>
<path d="M3388 3373 c7 -3 16 -2 19 1 4 3 -2 6 -13 5 -11 0 -14 -3 -6 -6z"/>
<path d="M3201 3294 c0 -11 3 -14 6 -6 3 7 2 16 -1 19 -3 4 -6 -2 -5 -13z"/>
<path d="M2950 3241 c0 -10 26 -9 36 2 4 4 -2 7 -14 7 -12 0 -22 -4 -22 -9z"/>
<path d="M3535 3211 c11 -10 31 -22 45 -26 l25 -7 -24 26 c-14 14 -34 26 -45
26 -20 0 -20 0 -1 -19z"/>
<path d="M3488 3113 c15 -27 32 -39 32 -22 0 7 12 2 27 -12 l27 -24 -16 25
c-8 14 -22 25 -30 25 -9 0 -23 7 -33 15 -17 14 -17 13 -7 -7z"/>
<path d="M3560 3040 c0 -5 9 -10 21 -10 11 0 17 5 14 10 -3 6 -13 10 -21 10
-8 0 -14 -4 -14 -10z"/>
<path d="M2674 2780 c0 -20 7 -25 19 -14 7 7 -2 34 -12 34 -4 0 -7 -9 -7 -20z"/>
<path d="M2730 2790 c0 -7 24 -20 36 -20 13 0 1 19 -16 23 -11 3 -20 2 -20 -3z"/>
<path d="M2421 2734 c0 -11 3 -14 6 -6 3 7 2 16 -1 19 -3 4 -6 -2 -5 -13z"/>
<path d="M2676 2714 c-3 -9 -4 -20 -1 -24 7 -11 35 -2 35 11 0 4 -7 6 -15 3
-11 -5 -13 -2 -9 10 3 9 4 16 1 16 -3 0 -8 -7 -11 -16z"/>
<path d="M2600 2659 c7 -11 14 -19 16 -16 7 7 -7 37 -17 37 -6 0 -5 -9 1 -21z"/>
<path d="M2676 2651 c-4 -7 -5 -15 -2 -18 9 -9 19 4 14 18 -4 11 -6 11 -12 0z"/>
<path d="M2258 2616 c-19 -14 -13 -66 8 -66 8 0 14 5 14 10 0 6 -4 10 -10 10
-14 0 -12 38 3 43 6 2 10 7 7 10 -3 3 -12 0 -22 -7z"/>
<path d="M2453 2533 c-13 -8 -23 -19 -23 -24 0 -13 48 12 54 27 7 18 -3 17
-31 -3z"/>
<path d="M2452 2488 c-7 -7 -12 -22 -12 -34 0 -17 7 -23 34 -26 32 -4 33 -3
25 24 -14 50 -25 58 -47 36z"/>
<path d="M2275 2420 c-3 -5 1 -10 9 -10 9 0 16 5 16 10 0 6 -4 10 -9 10 -6 0
-13 -4 -16 -10z"/>
<path d="M2330 2396 c0 -9 5 -16 10 -16 6 0 10 4 10 9 0 6 -4 13 -10 16 -5 3
-10 -1 -10 -9z"/>
<path d="M2572 2357 c-31 -33 -27 -43 5 -13 15 14 25 28 22 31 -3 3 -15 -5
-27 -18z"/>
<path d="M2563 2306 c-9 -11 -8 -15 6 -19 11 -3 17 2 18 14 2 22 -7 24 -24 5z"/>
<path d="M2645 2300 c-3 -6 1 -7 9 -4 18 7 21 14 7 14 -6 0 -13 -4 -16 -10z"/>
<path d="M2308 2275 c-16 -13 -23 -27 -18 -30 6 -3 10 -1 10 4 0 6 5 11 11 11
11 0 39 24 39 34 0 12 -16 5 -42 -19z"/>
<path d="M2569 2251 c11 -7 5 -11 -22 -16 -19 -4 -43 -16 -53 -26 -20 -22 -9
-24 26 -4 14 8 40 14 58 15 18 0 42 5 53 11 20 10 20 9 4 -20 -14 -29 -14 -31
2 -31 17 1 65 30 49 30 -5 0 -3 7 4 15 10 12 9 15 -6 15 -16 0 -17 2 -4 11 11
8 8 9 -15 4 -62 -14 -74 -15 -80 -5 -3 5 -12 10 -18 10 -8 0 -7 -4 2 -9z"/>
<path d="M2403 2153 c1 -10 6 -24 11 -31 4 -7 2 -19 -4 -27 -10 -12 -9 -15 9
-15 14 0 21 -6 21 -19 0 -17 -4 -18 -32 -10 -27 7 -35 5 -52 -13 -12 -13 -20
-25 -20 -28 1 -3 -3 -16 -8 -30 -16 -41 -19 -90 -6 -90 6 0 9 -3 6 -6 -10 -9
26 -41 40 -36 7 2 19 -4 27 -14 9 -12 14 -14 15 -6 0 9 7 11 21 7 14 -5 19 -4
15 4 -5 7 -1 9 9 5 8 -4 22 -1 30 6 12 10 12 15 -3 38 -9 14 -17 39 -19 56 -3
53 -19 146 -26 152 -3 4 -1 16 4 27 10 17 9 19 -10 14 -12 -3 -19 -1 -15 4 3
5 14 9 25 9 10 0 19 5 19 10 0 6 -13 10 -30 10 -23 0 -29 -4 -27 -17z m-38
-183 c-3 -5 -12 -10 -18 -10 -7 0 -6 4 3 10 19 12 23 12 15 0z"/>
<path d="M2656 2125 c-3 -9 -6 -22 -5 -28 0 -7 5 -1 10 12 5 13 8 26 5 28 -2
2 -6 -3 -10 -12z"/>
<path d="M2535 2050 c-3 -5 -1 -10 4 -10 6 0 11 5 11 10 0 6 -2 10 -4 10 -3 0
-8 -4 -11 -10z"/>
<path d="M2616 2034 c-9 -24 -7 -31 9 -31 10 0 12 4 6 10 -5 5 -7 16 -4 23 3
8 3 14 0 14 -3 0 -8 -7 -11 -16z"/>
<path d="M2523 2010 c1 -21 12 -26 22 -10 3 6 1 10 -5 10 -6 0 -8 5 -5 10 3 6
2 10 -4 10 -5 0 -9 -9 -8 -20z"/>
<path d="M2270 1930 c-6 -11 -9 -29 -7 -38 4 -13 5 -13 6 4 0 11 6 25 13 32 6
6 9 14 6 18 -4 3 -12 -4 -18 -16z"/>
<path d="M2387 1794 c-9 -10 4 -34 19 -34 10 0 14 -13 14 -45 0 -45 12 -60 24
-29 10 27 7 51 -9 64 -9 7 -14 19 -11 26 3 7 -2 15 -10 18 -19 7 -19 7 -27 0z"/>
<path d="M2385 1680 c3 -5 8 -10 11 -10 2 0 4 5 4 10 0 6 -5 10 -11 10 -5 0
-7 -4 -4 -10z"/>
<path d="M1810 3056 c0 -8 4 -17 9 -20 5 -4 7 3 4 14 -6 23 -13 26 -13 6z"/>
<path d="M1740 2955 c-15 -27 -5 -48 11 -25 8 12 12 12 16 2 4 -10 8 -10 19
-1 11 9 14 9 14 -1 0 -7 6 -10 14 -7 17 7 36 -11 36 -35 0 -20 4 -20 98 -23
34 -1 68 -7 74 -13 23 -23 28 -12 28 58 l0 70 -116 0 c-93 0 -119 -3 -132 -16
-14 -15 -17 -15 -27 0 -16 21 -19 20 -35 -9z"/>
<path d="M1548 2803 c7 -3 16 -2 19 1 4 3 -2 6 -13 5 -11 0 -14 -3 -6 -6z"/>
<path d="M1901 2794 c0 -11 3 -14 6 -6 3 7 2 16 -1 19 -3 4 -6 -2 -5 -13z"/>
<path d="M1563 2623 c-28 -5 -30 -19 -3 -26 11 -3 20 -1 20 5 0 6 9 8 20 5 11
-3 23 -1 26 4 3 5 1 9 -5 9 -5 0 -15 2 -23 4 -7 2 -23 1 -35 -1z"/>
<path d="M1732 2608 c5 -16 58 -24 58 -9 0 5 10 12 23 14 12 2 -2 5 -31 6 -39
1 -53 -2 -50 -11z"/>
<path d="M1551 2493 c17 -21 48 -53 52 -53 1 0 3 16 4 35 3 34 2 35 -33 35
-33 0 -35 -2 -23 -17z"/>
<path d="M1730 2493 c0 -14 2 -15 9 -4 5 8 18 12 30 8 12 -3 24 -1 27 4 3 5
-11 9 -30 9 -28 0 -36 -4 -36 -17z"/>
<path d="M1685 2440 c-3 -5 3 -10 15 -10 12 0 18 5 15 10 -3 6 -10 10 -15 10
-5 0 -12 -4 -15 -10z"/>
<path d="M1640 2430 c0 -5 7 -10 15 -10 8 0 15 5 15 10 0 6 -7 10 -15 10 -8 0
-15 -4 -15 -10z"/>
<path d="M1585 2400 c4 -6 11 -8 16 -5 14 9 11 15 -7 15 -8 0 -12 -5 -9 -10z"/>
<path d="M1607 2363 c-4 -3 -7 -11 -7 -17 0 -6 5 -5 12 2 6 6 9 14 7 17 -3 3
-9 2 -12 -2z"/>
<path d="M1687 2324 c-13 -13 -7 -24 14 -24 11 0 19 5 17 12 -5 14 -22 21 -31
12z"/>
<path d="M1640 2310 c0 -5 7 -10 15 -10 8 0 15 5 15 10 0 6 -7 10 -15 10 -8 0
-15 -4 -15 -10z"/>
<path d="M1600 2229 c0 -5 5 -7 10 -4 6 3 10 8 10 11 0 2 -4 4 -10 4 -5 0 -10
-5 -10 -11z"/>
<path d="M1685 2190 c-3 -5 3 -10 15 -10 12 0 18 5 15 10 -3 6 -10 10 -15 10
-5 0 -12 -4 -15 -10z"/>
<path d="M1640 2180 c0 -5 7 -10 15 -10 8 0 15 5 15 10 0 6 -7 10 -15 10 -8 0
-15 -4 -15 -10z"/>
<path d="M1607 2123 c-4 -3 -7 -11 -7 -17 0 -6 5 -5 12 2 6 6 9 14 7 17 -3 3
-9 2 -12 -2z"/>
<path d="M1687 2074 c-11 -11 3 -24 18 -18 8 4 12 10 9 15 -6 11 -18 12 -27 3z"/>
<path d="M1640 2060 c0 -5 7 -10 15 -10 8 0 15 5 15 10 0 6 -7 10 -15 10 -8 0
-15 -4 -15 -10z"/>
<path d="M1605 1989 c-4 -6 -5 -12 -2 -15 2 -3 7 2 10 11 7 17 1 20 -8 4z"/>
<path d="M1750 1962 c0 -5 7 -15 15 -22 8 -7 15 -8 15 -2 0 5 -7 15 -15 22 -8
7 -15 8 -15 2z"/>
<path d="M1680 1953 c1 -20 19 -35 35 -29 14 5 15 9 5 21 -13 16 -40 21 -40 8z"/>
<path d="M1535 1891 c-3 -5 0 -13 6 -17 8 -4 7 -9 -2 -15 -10 -6 -8 -9 9 -9
17 0 22 6 22 25 0 25 -23 35 -35 16z"/>
<path d="M3260 2291 c0 -11 4 -22 9 -25 4 -3 6 6 3 19 -5 30 -12 33 -12 6z"/>
<path d="M3570 2200 l-25 -6 25 -7 c26 -7 34 -4 29 11 -2 4 -15 5 -29 2z"/>
<path d="M3115 2060 c-3 -5 3 -10 15 -10 12 0 18 5 15 10 -3 6 -10 10 -15 10
-5 0 -12 -4 -15 -10z"/>
<path d="M2890 2299 c0 -11 5 -17 10 -14 6 3 10 13 10 21 0 8 -4 14 -10 14 -5
0 -10 -9 -10 -21z"/>
<path d="M3505 2131 c-3 -5 -1 -12 5 -16 5 -3 10 1 10 9 0 18 -6 21 -15 7z"/>
<path d="M3248 2028 c-2 -7 -1 -31 3 -53 6 -40 6 -39 8 13 1 51 -3 65 -11 40z"/>
<path d="M3170 1865 c0 -8 7 -15 15 -15 8 0 15 7 15 15 0 8 -7 15 -15 15 -8 0
-15 -7 -15 -15z"/>
<path d="M3277 1863 c-4 -3 -7 -11 -7 -17 0 -6 5 -5 12 2 6 6 9 14 7 17 -3 3
-9 2 -12 -2z"/>
<path d="M2187 2083 c-4 -3 -7 -13 -7 -22 1 -13 3 -13 11 2 11 19 8 33 -4 20z"/>
<path d="M3083 1673 c9 -2 23 -2 30 0 6 3 -1 5 -18 5 -16 0 -22 -2 -12 -5z"/>
<path d="M3213 1673 c9 -2 23 -2 30 0 6 3 -1 5 -18 5 -16 0 -22 -2 -12 -5z"/>
<path d="M3303 1673 c9 -2 25 -2 35 0 9 3 1 5 -18 5 -19 0 -27 -2 -17 -5z"/>
<path d="M3433 1673 c9 -2 25 -2 35 0 9 3 1 5 -18 5 -19 0 -27 -2 -17 -5z"/>
<path d="M1610 1650 c0 -4 34 -8 75 -7 98 3 98 16 0 16 -41 0 -75 -4 -75 -9z"/>
<path d="M1820 1651 c0 -5 34 -8 75 -7 41 0 75 4 75 9 0 4 -34 7 -75 7 -41 0
-75 -4 -75 -9z"/>
<path d="M2030 1652 c0 -10 46 -10 56 1 4 4 -7 7 -24 7 -18 0 -32 -4 -32 -8z"/>
<path d="M2126 1603 c-4 -4 -48 -8 -99 -10 -109 -3 -109 -3 -77 -12 22 -7 186
-7 233 0 24 3 21 16 -5 23 -30 8 -43 7 -52 -1z"/>
<path d="M2903 1513 c-24 -9 -13 -23 17 -23 32 0 40 14 14 24 -9 3 -16 6 -17
5 -1 0 -8 -3 -14 -6z"/>
<path d="M2298 1393 c7 -3 16 -2 19 1 4 3 -2 6 -13 5 -11 0 -14 -3 -6 -6z"/>
<path d="M2311 1354 c0 -11 3 -14 6 -6 3 7 2 16 -1 19 -3 4 -6 -2 -5 -13z"/>
<path d="M2330 1339 c0 -5 5 -7 10 -4 6 3 10 8 10 11 0 2 -4 4 -10 4 -5 0 -10
-5 -10 -11z"/>
<path d="M2626 1321 c-12 -5 -15 -10 -9 -14 6 -4 16 0 23 8 14 17 13 17 -14 6z"/>
<path d="M2700 1309 c0 -5 5 -7 10 -4 6 3 10 8 10 11 0 2 -4 4 -10 4 -5 0 -10
-5 -10 -11z"/>
<path d="M2328 1293 c7 -3 16 -2 19 1 4 3 -2 6 -13 5 -11 0 -14 -3 -6 -6z"/>
<path d="M2391 1291 c-19 -12 -4 -17 55 -20 31 -1 55 2 59 9 5 8 -3 11 -28 9
-20 -2 -39 0 -43 4 -10 9 -26 9 -43 -2z"/>
<path d="M2530 1290 c-13 -8 -12 -10 3 -10 9 0 17 5 17 10 0 12 -1 12 -20 0z"/>
<path d="M796 3943 l-109 -137 38 -33 c42 -36 56 -37 31 -1 -9 12 -16 29 -16
37 0 16 49 91 59 91 10 0 285 -220 294 -235 4 -8 3 -24 -3 -36 -24 -45 -1 -26
53 43 32 39 55 74 51 77 -3 3 -10 -2 -15 -12 -6 -9 -18 -17 -28 -17 -10 0 -84
52 -165 116 l-146 116 19 27 c38 52 68 65 116 47 13 -5 7 4 -15 23 -19 17 -39
31 -45 31 -5 0 -59 -62 -119 -137z"/>
<path d="M4325 3764 c-38 -8 -133 -25 -210 -39 -127 -21 -142 -22 -163 -9 -37
24 -36 10 4 -50 40 -61 49 -68 40 -32 -7 30 6 41 67 54 l48 10 48 -72 49 -72
-34 -47 c-35 -48 -51 -56 -72 -35 -28 28 -16 -2 29 -72 l49 -74 -2 37 c-1 33
15 61 119 215 66 97 123 183 127 190 9 15 -6 14 -99 -4z m-48 -109 c-28 -41
-53 -75 -56 -75 -3 1 -23 28 -43 60 -36 59 -37 60 -15 65 79 17 115 23 139 24
27 1 26 1 -25 -74z"/>
<path d="M587 3630 c-41 -73 -49 -103 -17 -65 7 8 19 15 28 15 16 0 253 -127
305 -163 24 -17 28 -25 23 -50 -3 -17 -3 -27 1 -23 12 12 91 151 88 154 -2 2
-13 -6 -24 -17 -25 -25 -22 -26 -191 67 -165 91 -173 98 -166 134 3 16 4 28 2
28 -2 0 -24 -36 -49 -80z"/>
<path d="M468 3398 c18 -18 15 -36 -12 -71 -30 -40 -47 -111 -39 -161 23 -141
211 -234 340 -168 107 55 147 207 78 297 -33 44 -46 39 -15 -5 50 -70 25 -181
-50 -224 -87 -50 -268 4 -315 94 -29 57 -11 138 39 178 15 11 48 24 72 28 25
3 43 9 40 11 -5 5 -121 32 -140 33 -6 0 -5 -5 2 -12z"/>
<path d="M4386 3366 c-76 -29 -126 -83 -147 -159 -17 -65 11 -179 60 -237 l29
-35 76 23 c90 26 112 27 120 6 4 -9 9 -14 12 -12 7 8 -37 158 -46 158 -4 0 -5
-10 -3 -23 6 -31 -8 -41 -96 -68 l-74 -22 -19 22 c-99 123 21 291 206 291 93
0 154 -50 163 -134 6 -54 -9 -99 -45 -126 -37 -29 -23 -32 39 -9 63 24 83 39
51 39 -20 0 -22 5 -22 60 0 99 -41 169 -124 212 -51 26 -130 32 -180 14z"/>
<path d="M469 2606 l-25 -93 33 -39 34 -39 -5 128 c-2 71 -6 130 -8 132 -1 2
-14 -38 -29 -89z"/>
<path d="M4581 2648 c-5 -18 -19 -60 -31 -94 l-23 -61 26 -43 c24 -41 26 -42
31 -19 7 35 17 249 12 249 -3 0 -9 -15 -15 -32z"/>
<path d="M643 2523 l-73 -4 -29 -43 -30 -44 -103 29 c-57 16 -113 33 -125 38
-47 21 -20 -6 55 -55 l77 -51 43 18 c23 10 42 15 42 12 0 -10 -101 -166 -123
-190 -35 -39 -9 -26 66 33 l71 55 -3 50 c-1 27 0 49 3 49 7 0 146 -181 146
-191 0 -5 4 -9 9 -9 8 0 -44 150 -62 177 -4 6 -22 15 -40 18 -17 4 -36 10 -41
13 -10 6 180 82 207 82 9 0 17 5 17 10 0 6 -8 9 -17 8 -10 -1 -51 -4 -90 -5z"/>
<path d="M4405 2436 l76 -64 45 14 c24 7 44 11 44 7 0 -8 -132 -176 -150 -190
-8 -7 -11 -13 -6 -13 6 0 45 23 88 51 l78 52 0 50 c0 64 5 59 89 -78 34 -54
61 -95 61 -91 0 4 -7 31 -14 59 -8 29 -20 70 -25 93 -10 35 -16 43 -51 54 -22
7 -40 16 -40 20 0 9 188 60 218 60 12 0 22 4 22 9 0 5 -43 11 -95 13 l-95 3
-34 -41 -35 -41 -121 48 c-67 27 -124 49 -127 49 -3 0 29 -29 72 -64z"/>
<path d="M637 1906 c-138 -51 -203 -186 -146 -303 53 -109 190 -153 302 -97
127 64 170 205 97 316 -52 79 -165 117 -253 84z m211 -73 c34 -25 58 -89 48
-129 -19 -75 -163 -164 -267 -164 -42 0 -55 5 -85 33 -31 28 -37 42 -41 84 -5
45 -2 53 27 87 43 49 80 74 143 97 63 24 137 20 175 -8z"/>
<path d="M4600 1915 c0 -4 11 -20 25 -37 31 -36 31 -69 3 -139 -36 -90 -29
-89 -180 -29 -73 29 -150 62 -172 72 -36 18 -38 22 -33 54 10 58 -6 38 -44
-56 -34 -85 -39 -114 -11 -70 7 11 22 20 35 19 12 0 94 -31 182 -67 160 -67
160 -67 160 -100 0 -17 2 -32 5 -32 4 0 113 265 127 309 1 3 -20 23 -47 44
-28 21 -50 35 -50 32z"/>
<path d="M1000 1567 c0 -4 5 -15 11 -26 7 -11 8 -24 3 -33 -16 -29 -279 -228
-300 -228 -12 0 -27 7 -34 15 -7 9 -15 13 -17 11 -3 -3 21 -37 52 -76 32 -39
60 -68 63 -65 3 3 0 11 -6 17 -7 7 -12 18 -12 25 0 13 131 123 146 123 5 -1
21 -17 37 -37 27 -37 35 -77 17 -88 -5 -3 -10 -10 -10 -16 0 -5 27 12 60 38
33 25 60 47 60 49 0 1 -17 0 -38 -3 -34 -5 -40 -2 -71 37 l-34 42 29 24 c16
13 47 37 70 53 l41 30 42 -57 c43 -58 48 -84 26 -137 -6 -14 2 -10 32 15 l41
34 -74 96 c-90 116 -133 167 -134 157z"/>
<path d="M4020 1488 c0 -5 52 -95 115 -200 98 -161 115 -196 110 -220 -4 -15
-5 -28 -2 -28 2 0 23 27 46 60 41 59 45 76 10 44 -22 -20 -34 -13 -69 43 l-29
45 51 69 c55 75 50 73 137 47 30 -9 32 -13 27 -39 -3 -16 -4 -29 -2 -29 6 0
106 138 106 145 0 3 -12 -2 -26 -12 -29 -19 -37 -18 -331 51 -79 18 -143 29
-143 24z m178 -93 c39 -9 72 -19 72 -22 0 -8 -74 -113 -80 -113 -3 0 -21 26
-39 58 -19 31 -41 68 -50 81 -14 22 -14 23 4 18 11 -4 53 -13 93 -22z"/>
<path d="M1230 1285 c0 -3 7 -16 15 -29 18 -27 22 -21 -124 -191 -107 -125
-116 -133 -144 -116 -42 27 -24 1 37 -53 70 -61 85 -69 60 -31 -16 24 -15 27
9 58 13 17 42 51 63 75 l39 43 45 -46 c39 -40 43 -48 32 -65 -26 -41 -9 -33
38 20 51 57 56 69 20 50 -26 -14 -46 -7 -89 30 l-33 28 53 66 c30 35 56 65 59
65 3 0 29 -21 59 -47 55 -50 66 -78 47 -127 -4 -11 8 -2 28 20 l36 40 -37 33
c-105 93 -213 183 -213 177z"/>
<path d="M3718 1153 c-122 -104 -144 -128 -98 -103 12 6 28 9 35 6 23 -8 245
-273 245 -292 0 -9 -8 -26 -17 -37 -37 -41 7 -8 129 96 l125 109 -20 49 c-12
27 -23 49 -26 49 -4 0 -4 -23 -2 -51 3 -48 1 -52 -40 -91 -89 -82 -83 -82
-155 -3 l-64 70 48 42 c46 42 93 56 107 33 3 -5 11 -10 17 -10 6 0 -11 26 -38
58 -26 31 -49 59 -51 61 -2 2 -6 1 -9 -2 -4 -4 -1 -13 6 -22 20 -24 4 -57 -46
-99 l-47 -39 -53 59 c-29 32 -53 64 -54 69 0 11 84 86 117 104 18 9 29 9 53
-4 16 -9 30 -12 30 -7 0 9 -52 62 -61 62 -3 0 -62 -48 -131 -107z"/>
<path d="M1510 1056 c0 -3 9 -15 20 -26 20 -20 20 -20 1 -58 -11 -20 -55 -93
-99 -162 l-78 -125 -39 2 c-36 3 -37 2 -20 -10 60 -40 147 -88 151 -84 3 3 -4
10 -15 17 -12 6 -21 18 -21 28 0 19 160 285 190 316 16 17 23 18 45 8 38 -18
30 0 -13 25 -20 12 -56 34 -79 48 -24 14 -43 24 -43 21z"/>
<path d="M3520 1007 c0 -19 -2 -20 -69 -37 -27 -7 -58 -25 -78 -45 -27 -27
-33 -41 -33 -77 0 -47 18 -81 53 -100 12 -6 72 -14 134 -18 89 -5 116 -10 132
-24 30 -28 27 -72 -8 -107 -25 -24 -37 -29 -80 -29 -42 0 -56 5 -86 31 -19 17
-35 28 -35 23 0 -11 70 -134 77 -134 3 0 2 7 -1 15 -6 17 9 25 84 45 91 25
142 115 103 182 -29 51 -73 68 -176 68 -54 0 -101 6 -122 14 -30 13 -35 20
-35 49 0 87 131 115 190 40 35 -45 30 -20 -10 52 -22 39 -40 62 -40 52z"/>
<path d="M1740 864 c-77 -33 -136 -116 -147 -205 -14 -122 83 -228 210 -229
47 0 127 31 127 49 0 5 -17 0 -37 -10 -73 -37 -173 -12 -213 54 -38 61 -17
182 45 263 88 116 265 65 265 -77 0 -54 11 -43 38 39 20 60 18 74 -5 51 -9 -9
-21 -4 -49 21 -21 18 -52 39 -70 46 -43 18 -120 17 -164 -2z"/>
<path d="M2117 771 c27 -17 32 -25 28 -48 -3 -16 -17 -97 -31 -182 -14 -85
-27 -158 -30 -163 -3 -4 -19 -8 -37 -8 -55 0 -15 -16 71 -29 80 -12 122 -9 69
4 -14 4 -28 13 -31 20 -5 14 50 361 60 377 3 4 19 8 35 8 48 0 25 17 -33 24
-29 3 -71 9 -93 12 l-40 6 32 -21z"/>
<path d="M2853 762 c-46 -8 -83 -19 -83 -25 0 -5 7 -7 15 -3 26 10 44 -5 54
-43 5 -20 22 -102 36 -184 28 -152 26 -177 -11 -177 -8 0 -14 -5 -14 -11 0 -6
7 -9 15 -6 8 4 82 18 164 33 l151 27 6 36 c3 20 8 48 10 64 3 15 1 27 -4 27
-5 0 -12 -14 -16 -30 -10 -51 -44 -76 -125 -90 -43 -8 -75 -10 -81 -4 -12 13
-73 342 -66 360 3 8 17 19 31 24 26 10 34 21 13 19 -7 -1 -50 -9 -95 -17z"/>
<path d="M2425 568 c-95 -202 -116 -237 -143 -239 -25 -2 58 -18 96 -18 17 -1
32 4 32 9 0 6 -9 10 -20 10 -32 0 -35 27 -10 81 l23 49 57 0 c104 0 117 -6
136 -62 17 -52 14 -78 -11 -78 -8 0 -15 -4 -15 -8 0 -4 39 -9 87 -11 87 -2 95
1 51 23 -18 9 -41 59 -103 224 -44 116 -82 212 -85 212 -3 0 -46 -86 -95 -192z
m111 -3 l31 -85 -74 0 c-40 0 -73 2 -73 5 0 12 73 165 79 165 3 0 20 -39 37
-85z"/>
</g>
</svg>
